<?xml version="1.0" encoding="UTF-8"?>
<!DOCTYPE svg PUBLIC "-//W3C//DTD SVG 1.1//EN" "http://www.w3.org/Graphics/SVG/1.1/DTD/svg11.dtd">
<svg version="1.1" xmlns="http://www.w3.org/2000/svg" xmlns:xlink="http://www.w3.org/1999/xlink" x="0" y="0" width="1133.9" height="184.6" viewBox="0, 0, 1133.9, 184.6">
  <g id="Layer_1" transform="translate(-504.2, -140.3)">
    <path d="M642.8,276.5 L618.8,276.5 L618.8,218.3 Q618.8,210.1 614.3,205.2 Q609.8,200.3 602,200.3 Q595,200.3 590,205.4 Q585,210.5 585,217.3 L585,276.5 L562,276.5 L562,218.3 Q562,210.5 556.8,205.4 Q551.6,200.3 544.2,200.3 Q537.2,200.3 532.7,205.3 Q528.2,210.3 528.2,217.7 L528.2,276.5 L504.2,276.5 L504.2,178.7 L528.2,178.7 L528.2,186.7 Q535.8,178.1 551.8,177.9 Q567.8,178.5 576.8,191.5 Q585.8,178.1 604.4,177.9 Q622.8,178.3 632.8,190.5 Q642.8,202.7 642.8,217.1 z M708.8,252.7 Q696.8,258.1 687.8,258.1 Q679.8,258.1 675.4,254.3 Q671,250.5 671,245.3 Q671,240.3 675.6,236.7 Q680.2,233.1 688.4,233.1 Q697.2,233.1 708.8,236.3 L708.8,252.7 z M731.4,217.3 Q731.4,199.1 720.2,187.7 Q709,176.3 692.4,176.3 Q675.2,176.3 657.2,188.1 L668.4,205.9 Q680,198.7 692,198.9 Q708.2,199.9 708.6,215.1 Q698.2,212.1 687.2,212.1 Q671,212.1 660.3,220.5 Q649.6,228.9 649.6,244.1 Q649.6,258.9 658.6,268.6 Q667.6,278.3 684.8,278.3 Q698.2,278.3 708.8,272.3 L708.8,276.5 L731.4,276.5 z M794.3,251.1 Q788.3,256.9 782.7,256.5 Q774.7,256.7 774.1,247.5 L774.1,201.7 L794.3,201.7 L794.3,179.3 L774.1,179.3 L774.1,140.3 L749.7,152.5 L749.7,179.3 L733.7,179.3 L733.7,201.7 L749.7,201.7 L749.7,248.7 Q749.7,261.5 756.2,270.2 Q762.7,278.9 774.1,278.9 Q781.3,278.7 787.3,276.3 L794.3,251.1 z M820.2,227.7 Q820.2,215.5 825.5,207.9 Q830.8,200.3 840.4,200.3 Q851,200.9 856.6,209.5 L856.6,246.7 Q851.8,254.9 840.8,255.3 Q831.6,255.3 825.9,247.4 Q820.2,239.5 820.2,227.7 z M798.4,228.1 Q798.4,248.3 808.5,263.6 Q818.6,278.9 838.8,279.1 Q849.2,278.9 856.6,272.1 L856.6,276.5 Q854.2,296.5 832.8,302.1 L838.2,324.9 Q854.6,321.3 867.5,308.6 Q880.4,295.9 880.6,276.5 L880.6,178.7 L856.6,178.7 L856.6,182.9 Q848.8,176.9 838,176.9 Q819.4,176.9 808.9,192.6 Q798.4,208.3 798.4,228.1 z M892.6,178.7 L892.6,276.5 L916.6,276.5 L916.6,178.7 z M916.6,151.9 Q916.6,147.1 913,143.7 Q909.4,140.3 904.6,140.3 Q899.6,140.3 896.1,143.7 Q892.6,147.1 892.6,151.9 Q892.6,157.5 896,160.9 Q899.4,164.3 904.6,164.3 Q909.4,164.3 913,160.7 Q916.6,157.1 916.6,151.9 z M954.4,140.3 L930.4,152.3 L930.4,276.5 L954.4,276.5 z M1026.8,227.7 Q1026.8,239.5 1021.1,247.4 Q1015.4,255.3 1006.2,255.3 Q995.2,254.9 990.4,246.7 L990.4,209.5 Q996,200.9 1006.6,200.3 Q1016.2,200.3 1021.5,207.9 Q1026.8,215.5 1026.8,227.7 z M1048.6,228.1 Q1048.6,208.3 1038.1,192.6 Q1027.6,176.9 1009,176.9 Q997.6,177.1 990.4,182.9 L990.4,140.3 L966.4,152.3 L966.4,276.5 L990.4,276.5 L990.4,272.1 Q997.8,278.9 1008.2,279.1 Q1028.4,278.9 1038.5,263.6 Q1048.6,248.3 1048.6,228.1 z M1080.2,216.3 Q1080.4,209.1 1085.7,203.8 Q1091,198.5 1098.4,198.7 Q1105,198.5 1110.1,203.5 Q1115.2,208.5 1115.6,216.3 z M1139.2,228.1 Q1139,209.1 1128.8,193.3 Q1118.6,177.5 1097.8,177.3 Q1080.2,177.3 1068,192.1 Q1055.8,206.9 1055.8,228.1 Q1055.8,249.5 1068.3,264.2 Q1080.8,278.9 1098.8,278.9 Q1117.2,278.9 1129.8,263.9 L1115,249.1 Q1107,256.7 1098.8,256.7 Q1092.4,256.7 1086.3,251.1 Q1080.2,245.5 1079.4,235.1 L1139.2,235.1 z M1211,183.1 Q1202.2,176.3 1190.4,176.3 Q1179.4,176.3 1172.2,184.5 L1172.2,178.7 L1148.2,178.7 L1148.2,276.5 L1172.2,276.5 L1172.2,219.1 Q1172.4,199.5 1189.2,199.7 Q1198,199.5 1203.6,205.9 L1211,183.1 z M1275.8,251.1 Q1269.8,256.9 1264.2,256.5 Q1256.2,256.7 1255.6,247.5 L1255.6,201.7 L1275.8,201.7 L1275.8,179.3 L1255.6,179.3 L1255.6,140.3 L1231.2,152.5 L1231.2,179.3 L1215.2,179.3 L1215.2,201.7 L1231.2,201.7 L1231.2,248.7 Q1231.2,261.5 1237.7,270.2 Q1244.2,278.9 1255.6,278.9 Q1262.8,278.7 1268.8,276.3 L1275.8,251.1 z M1314.8,265.7 Q1314.8,260.1 1310.8,256.1 Q1306.8,252.1 1301.2,252.1 Q1295.8,252.1 1291.9,256.1 Q1288,260.1 1288,265.7 Q1288,270.9 1291.9,274.9 Q1295.8,278.9 1301.2,278.9 Q1306.8,278.9 1310.8,275 Q1314.8,271.1 1314.8,265.7 z M1387.2,244.9 Q1379.2,254.9 1367,255.9 Q1356.4,255.9 1349.7,247.9 Q1343,239.9 1343,227.7 Q1343,215.3 1349.7,207.4 Q1356.4,199.5 1367,199.5 Q1379.2,200.1 1388.6,208.9 L1402.8,194.7 Q1388,176.3 1366.6,176.3 Q1346.4,176.3 1333.2,190.9 Q1320,205.5 1320,227.7 Q1320,249.9 1333.2,264.4 Q1346.4,278.9 1366.6,278.9 Q1388,278.9 1402.8,260.5 z M1467,227.7 Q1467,239.5 1461.6,247.4 Q1456.2,255.3 1447.6,255.3 Q1438.6,255.3 1433.2,247.4 Q1427.8,239.5 1427.8,227.7 Q1427.8,215.9 1433.2,208.1 Q1438.6,200.3 1447.6,200.3 Q1456.2,200.3 1461.6,208 Q1467,215.7 1467,227.7 z M1490.2,227.7 Q1490.2,206.3 1477.7,191.3 Q1465.2,176.3 1447.4,176.3 Q1429.4,176.3 1417,191.3 Q1404.6,206.3 1404.6,227.7 Q1404.6,248.9 1417,263.9 Q1429.4,278.9 1447.4,278.9 Q1465.2,278.9 1477.7,263.9 Q1490.2,248.9 1490.2,227.7 z M1638.1,217.1 Q1638.1,202.7 1628.1,190.5 Q1618.1,178.3 1599.7,177.9 Q1581.1,178.1 1572.1,191.5 Q1563.1,178.5 1547.1,177.9 Q1531.1,178.1 1523.5,186.7 L1523.5,178.7 L1499.5,178.7 L1499.5,276.5 L1523.5,276.5 L1523.5,217.7 Q1523.5,210.3 1528,205.3 Q1532.5,200.3 1539.5,200.3 Q1546.9,200.3 1552.1,205.4 Q1557.3,210.5 1557.3,218.3 L1557.3,276.5 L1580.3,276.5 L1580.3,217.3 Q1580.3,210.5 1585.3,205.4 Q1590.3,200.3 1597.3,200.3 Q1605.1,200.3 1609.6,205.2 Q1614.1,210.1 1614.1,218.3 L1614.1,276.5 L1638.1,276.5 z" fill="#FFFFFF"/>
  </g>
</svg>
