<?xml version="1.0" encoding="UTF-8"?>
<!DOCTYPE svg PUBLIC "-//W3C//DTD SVG 1.1//EN" "http://www.w3.org/Graphics/SVG/1.1/DTD/svg11.dtd">
<svg version="1.1" xmlns="http://www.w3.org/2000/svg" xmlns:xlink="http://www.w3.org/1999/xlink" x="0" y="0" width="1133.9" height="184.6" viewBox="0, 0, 1133.9, 184.6">
  <g id="Layer_1" transform="translate(-514.2, -400.3)">
    <path d="M652.8,536.5 L628.8,536.5 L628.8,478.3 Q628.8,470.1 624.3,465.2 Q619.8,460.3 612,460.3 Q605,460.3 600,465.4 Q595,470.5 595,477.3 L595,536.5 L572,536.5 L572,478.3 Q572,470.5 566.8,465.4 Q561.6,460.3 554.2,460.3 Q547.2,460.3 542.7,465.3 Q538.2,470.3 538.2,477.7 L538.2,536.5 L514.2,536.5 L514.2,438.7 L538.2,438.7 L538.2,446.7 Q545.8,438.1 561.8,437.9 Q577.8,438.5 586.8,451.5 Q595.8,438.1 614.4,437.9 Q632.8,438.3 642.8,450.5 Q652.8,462.7 652.8,477.1 z M718.8,512.7 Q706.8,518.1 697.8,518.1 Q689.8,518.1 685.4,514.3 Q681,510.5 681,505.3 Q681,500.3 685.6,496.7 Q690.2,493.1 698.4,493.1 Q707.2,493.1 718.8,496.3 L718.8,512.7 z M741.4,477.3 Q741.4,459.1 730.2,447.7 Q719,436.3 702.4,436.3 Q685.2,436.3 667.2,448.1 L678.4,465.9 Q690,458.7 702,458.9 Q718.2,459.9 718.6,475.1 Q708.2,472.1 697.2,472.1 Q681,472.1 670.3,480.5 Q659.6,488.9 659.6,504.1 Q659.6,518.9 668.6,528.6 Q677.6,538.3 694.8,538.3 Q708.2,538.3 718.8,532.3 L718.8,536.5 L741.4,536.5 z M804.3,511.1 Q798.3,516.9 792.7,516.5 Q784.7,516.7 784.1,507.5 L784.1,461.7 L804.3,461.7 L804.3,439.3 L784.1,439.3 L784.1,400.3 L759.7,412.5 L759.7,439.3 L743.7,439.3 L743.7,461.7 L759.7,461.7 L759.7,508.7 Q759.7,521.5 766.2,530.2 Q772.7,538.9 784.1,538.9 Q791.3,538.7 797.3,536.3 L804.3,511.1 z M830.2,487.7 Q830.2,475.5 835.5,467.9 Q840.8,460.3 850.4,460.3 Q861,460.9 866.6,469.5 L866.6,506.7 Q861.8,514.9 850.8,515.3 Q841.6,515.3 835.9,507.4 Q830.2,499.5 830.2,487.7 z M808.4,488.1 Q808.4,508.3 818.5,523.6 Q828.6,538.9 848.8,539.1 Q859.2,538.9 866.6,532.1 L866.6,536.5 Q864.2,556.5 842.8,562.1 L848.2,584.9 Q864.6,581.3 877.5,568.6 Q890.4,555.9 890.6,536.5 L890.6,438.7 L866.6,438.7 L866.6,442.9 Q858.8,436.9 848,436.9 Q829.4,436.9 818.9,452.6 Q808.4,468.3 808.4,488.1 z M902.6,438.7 L902.6,536.5 L926.6,536.5 L926.6,438.7 z M926.6,411.9 Q926.6,407.1 923,403.7 Q919.4,400.3 914.6,400.3 Q909.6,400.3 906.1,403.7 Q902.6,407.1 902.6,411.9 Q902.6,417.5 906,420.9 Q909.4,424.3 914.6,424.3 Q919.4,424.3 923,420.7 Q926.6,417.1 926.6,411.9 z M964.4,400.3 L940.4,412.3 L940.4,536.5 L964.4,536.5 z M1036.8,487.7 Q1036.8,499.5 1031.1,507.4 Q1025.4,515.3 1016.2,515.3 Q1005.2,514.9 1000.4,506.7 L1000.4,469.5 Q1006,460.9 1016.6,460.3 Q1026.2,460.3 1031.5,467.9 Q1036.8,475.5 1036.8,487.7 z M1058.6,488.1 Q1058.6,468.3 1048.1,452.6 Q1037.6,436.9 1019,436.9 Q1007.6,437.1 1000.4,442.9 L1000.4,400.3 L976.4,412.3 L976.4,536.5 L1000.4,536.5 L1000.4,532.1 Q1007.8,538.9 1018.2,539.1 Q1038.4,538.9 1048.5,523.6 Q1058.6,508.3 1058.6,488.1 z M1090.2,476.3 Q1090.4,469.1 1095.7,463.8 Q1101,458.5 1108.4,458.7 Q1115,458.5 1120.1,463.5 Q1125.2,468.5 1125.6,476.3 z M1149.2,488.1 Q1149,469.1 1138.8,453.3 Q1128.6,437.5 1107.8,437.3 Q1090.2,437.3 1078,452.1 Q1065.8,466.9 1065.8,488.1 Q1065.8,509.5 1078.3,524.2 Q1090.8,538.9 1108.8,538.9 Q1127.2,538.9 1139.8,523.9 L1125,509.1 Q1117,516.7 1108.8,516.7 Q1102.4,516.7 1096.3,511.1 Q1090.2,505.5 1089.4,495.1 L1149.2,495.1 z M1221,443.1 Q1212.2,436.3 1200.4,436.3 Q1189.4,436.3 1182.2,444.5 L1182.2,438.7 L1158.2,438.7 L1158.2,536.5 L1182.2,536.5 L1182.2,479.1 Q1182.4,459.5 1199.2,459.7 Q1208,459.5 1213.6,465.9 L1221,443.1 z M1285.8,511.1 Q1279.8,516.9 1274.2,516.5 Q1266.2,516.7 1265.6,507.5 L1265.6,461.7 L1285.8,461.7 L1285.8,439.3 L1265.6,439.3 L1265.6,400.3 L1241.2,412.5 L1241.2,439.3 L1225.2,439.3 L1225.2,461.7 L1241.2,461.7 L1241.2,508.7 Q1241.2,521.5 1247.7,530.2 Q1254.2,538.9 1265.6,538.9 Q1272.8,538.7 1278.8,536.3 L1285.8,511.1 z M1324.8,525.7 Q1324.8,520.1 1320.8,516.1 Q1316.8,512.1 1311.2,512.1 Q1305.8,512.1 1301.9,516.1 Q1298,520.1 1298,525.7 Q1298,530.9 1301.9,534.9 Q1305.8,538.9 1311.2,538.9 Q1316.8,538.9 1320.8,535 Q1324.8,531.1 1324.8,525.7 z M1397.2,504.9 Q1389.2,514.9 1377,515.9 Q1366.4,515.9 1359.7,507.9 Q1353,499.9 1353,487.7 Q1353,475.3 1359.7,467.4 Q1366.4,459.5 1377,459.5 Q1389.2,460.1 1398.6,468.9 L1412.8,454.7 Q1398,436.3 1376.6,436.3 Q1356.4,436.3 1343.2,450.9 Q1330,465.5 1330,487.7 Q1330,509.9 1343.2,524.4 Q1356.4,538.9 1376.6,538.9 Q1398,538.9 1412.8,520.5 z M1477,487.7 Q1477,499.5 1471.6,507.4 Q1466.2,515.3 1457.6,515.3 Q1448.6,515.3 1443.2,507.4 Q1437.8,499.5 1437.8,487.7 Q1437.8,475.9 1443.2,468.1 Q1448.6,460.3 1457.6,460.3 Q1466.2,460.3 1471.6,468 Q1477,475.7 1477,487.7 z M1500.2,487.7 Q1500.2,466.3 1487.7,451.3 Q1475.2,436.3 1457.4,436.3 Q1439.4,436.3 1427,451.3 Q1414.6,466.3 1414.6,487.7 Q1414.6,508.9 1427,523.9 Q1439.4,538.9 1457.4,538.9 Q1475.2,538.9 1487.7,523.9 Q1500.2,508.9 1500.2,487.7 z M1648.1,477.1 Q1648.1,462.7 1638.1,450.5 Q1628.1,438.3 1609.7,437.9 Q1591.1,438.1 1582.1,451.5 Q1573.1,438.5 1557.1,437.9 Q1541.1,438.1 1533.5,446.7 L1533.5,438.7 L1509.5,438.7 L1509.5,536.5 L1533.5,536.5 L1533.5,477.7 Q1533.5,470.3 1538,465.3 Q1542.5,460.3 1549.5,460.3 Q1556.9,460.3 1562.1,465.4 Q1567.3,470.5 1567.3,478.3 L1567.3,536.5 L1590.3,536.5 L1590.3,477.3 Q1590.3,470.5 1595.3,465.4 Q1600.3,460.3 1607.3,460.3 Q1615.1,460.3 1619.6,465.2 Q1624.1,470.1 1624.1,478.3 L1624.1,536.5 L1648.1,536.5 z" fill="#000000"/>
  </g>
</svg>
